# Blender v2.93.1 OBJ File: 'Skylt.blend'
# www.blender.org
mtllib ActualDoor.mtl
o Cube.001_Cube.002
v -0.049948 0.007657 0.410263
v -0.049948 1.867092 0.410263
v -0.049948 0.007657 -0.410264
v -0.049948 1.867092 -0.410264
v 0.049948 0.007657 0.410263
v 0.049948 1.867092 0.410263
v 0.049948 0.007657 -0.410264
v 0.049948 1.867092 -0.410264
v 0.088967 0.990653 -0.326779
v 0.088967 0.958573 -0.277669
v 0.088967 0.886490 -0.261216
v 0.088967 0.828685 -0.289811
v 0.088967 0.828685 -0.363747
v 0.088967 0.886490 -0.392342
v 0.088967 0.958573 -0.375890
v 0.088967 0.808643 -0.326779
v 0.155004 0.949718 -0.326779
v 0.155004 0.933637 -0.302162
v 0.155004 0.889922 -0.292184
v 0.155004 0.854993 -0.309462
v 0.155004 0.854993 -0.344096
v 0.155004 0.889922 -0.361374
v 0.155004 0.933637 -0.351397
v 0.155004 0.845605 -0.326779
v -0.107037 0.958573 -0.277669
v -0.107037 0.990653 -0.326779
v -0.107037 0.886490 -0.261216
v -0.107037 0.828685 -0.289811
v -0.107037 0.808643 -0.326779
v -0.107037 0.886490 -0.392342
v -0.107037 0.828685 -0.363747
v -0.107037 0.958573 -0.375890
v -0.169571 0.933896 -0.301967
v -0.169571 0.950104 -0.326779
v -0.169571 0.889895 -0.291924
v -0.169571 0.854736 -0.309315
v -0.169571 0.845268 -0.326779
v -0.169571 0.889895 -0.361635
v -0.169571 0.854736 -0.344243
v -0.169571 0.933896 -0.351592
v 0.155004 0.942008 -0.290141
v 0.155004 0.965940 -0.326779
v 0.155004 0.888232 -0.277867
v 0.155004 0.845107 -0.299200
v 0.155004 0.830156 -0.326779
v 0.155004 0.888232 -0.375691
v 0.155004 0.845107 -0.354358
v 0.155004 0.942008 -0.363417
v -0.169571 0.942267 -0.289946
v -0.169571 0.966327 -0.326779
v -0.169571 0.888205 -0.277607
v -0.169571 0.844851 -0.299053
v -0.169571 0.829819 -0.326779
v -0.169571 0.888205 -0.375951
v -0.169571 0.844851 -0.354505
v -0.169571 0.942267 -0.363612
v -0.192207 0.920130 -0.317399
v -0.192207 0.936586 -0.326779
v -0.192207 0.883104 -0.302859
v -0.192207 0.859679 -0.314447
v -0.192207 0.852993 -0.326779
v -0.192207 0.883104 -0.350699
v -0.192207 0.859679 -0.339112
v -0.192207 0.920130 -0.336159
v 0.177640 0.919871 -0.317594
v 0.177640 0.936199 -0.326779
v 0.177640 0.883131 -0.303119
v 0.177640 0.859936 -0.314593
v 0.177640 0.853329 -0.326779
v 0.177640 0.883131 -0.350439
v 0.177640 0.859936 -0.338965
v 0.177640 0.919871 -0.335964
v 0.177640 0.854993 -0.309462
v 0.177640 0.908031 -0.314892
v 0.177640 0.845605 -0.326779
v 0.177640 0.908031 -0.338667
v 0.177640 0.854993 -0.344096
v 0.177640 0.933637 -0.302162
v 0.177640 0.949718 -0.326779
v 0.177640 0.889922 -0.292184
v 0.177640 0.933637 -0.351397
v 0.177640 0.889922 -0.361374
v -0.192207 0.854736 -0.309315
v -0.192207 0.908004 -0.314631
v -0.192207 0.845268 -0.326779
v -0.192207 0.908004 -0.338927
v -0.192207 0.854736 -0.344243
v -0.192207 0.933896 -0.301967
v -0.192207 0.950104 -0.326779
v -0.192207 0.889895 -0.291924
v -0.192207 0.933896 -0.351592
v -0.192207 0.889895 -0.361635
v -0.192207 0.926921 -0.311984
v -0.192207 0.926921 -0.341575
v -0.192207 0.901213 -0.306116
v -0.192207 0.901213 -0.347442
v -0.237478 0.920130 -0.317399
v -0.237478 0.920130 -0.336159
v -0.237478 0.908004 -0.314631
v -0.237478 0.908004 -0.338927
v 0.177640 0.926662 -0.312179
v 0.177640 0.926662 -0.341380
v 0.177640 0.901240 -0.306376
v 0.177640 0.901240 -0.347182
v 0.222911 0.919871 -0.317594
v 0.222911 0.919871 -0.335964
v 0.222911 0.908031 -0.314892
v 0.222911 0.908031 -0.338667
v 0.234229 0.919871 -0.317594
v 0.234229 0.919871 -0.335964
v 0.234229 0.908031 -0.314892
v 0.234229 0.908031 -0.338667
v -0.248796 0.920130 -0.317399
v -0.248796 0.920130 -0.336159
v -0.248796 0.908004 -0.314631
v -0.248796 0.908004 -0.338927
v -0.237478 0.910552 -0.204289
v -0.237478 0.922679 -0.207057
v -0.248796 0.910552 -0.204289
v -0.248796 0.922679 -0.207057
v 0.222911 0.910580 -0.204550
v 0.222911 0.922420 -0.207252
v 0.234229 0.910580 -0.204550
v 0.234229 0.922420 -0.207252
vt 0.272291 0.384312
vt 0.272291 0.998052
vt 0.001462 0.998052
vt 0.001462 0.384312
vt 0.543637 0.998052
vt 0.543637 0.384312
vt 0.576609 0.384312
vt 0.576609 0.998052
vt 0.543379 0.384312
vt 0.543379 0.998052
vt 0.272549 0.998052
vt 0.272549 0.384312
vt 0.609839 0.384312
vt 0.609839 0.998052
vt 0.576867 0.998052
vt 0.576867 0.384312
vt 0.610097 0.384312
vt 0.643069 0.384312
vt 0.643069 0.655142
vt 0.610097 0.655142
vt 0.610097 0.655400
vt 0.643069 0.655400
vt 0.643069 0.926229
vt 0.610097 0.926229
vt 0.800781 0.345505
vt 0.907172 0.294270
vt 0.907172 0.294270
vt 0.800781 0.345505
vt 0.871489 0.276707
vt 0.800781 0.311043
vt 0.800781 0.311043
vt 0.871489 0.276707
vt 0.800781 0.345505
vt 0.907172 0.294270
vt 0.859824 0.086823
vt 0.933448 0.179146
vt 0.933448 0.179146
vt 0.859824 0.086823
vt 0.668114 0.179146
vt 0.741739 0.086823
vt 0.741739 0.086823
vt 0.668114 0.179146
vt 0.694391 0.294270
vt 0.694391 0.294270
vt 0.800781 0.086823
vt 0.800781 0.086823
vt 0.933448 0.179146
vt 0.859824 0.086823
vt 0.859824 0.086823
vt 0.933448 0.179146
vt 0.668114 0.179146
vt 0.741739 0.086823
vt 0.694391 0.294270
vt 0.800781 0.086823
vt 0.707546 0.183538
vt 0.729886 0.276799
vt 0.729886 0.276799
vt 0.707546 0.183538
vt 0.668114 0.179146
vt 0.741739 0.086823
vt 0.800781 0.345505
vt 0.694391 0.294270
vt 0.800781 0.086823
vt 0.907172 0.294270
vt 0.730073 0.276707
vt 0.707754 0.183562
vt 0.761371 0.113515
vt 0.800781 0.103704
vt 0.893809 0.183562
vt 0.840192 0.113515
vt 0.800781 0.311225
vt 0.761259 0.113389
vt 0.800781 0.103592
vt 0.840303 0.113389
vt 0.894016 0.183538
vt 0.871676 0.276800
vt 0.772871 0.118504
vt 0.737805 0.169989
vt 0.863758 0.169989
vt 0.828691 0.118504
vt 0.871676 0.276800
vt 0.800781 0.311225
vt 0.840303 0.113389
vt 0.894016 0.183538
vt 0.761259 0.113389
vt 0.800781 0.103592
vt 0.800781 0.111777
vt 0.828514 0.118681
vt 0.773049 0.118681
vt 0.893809 0.183562
vt 0.840192 0.113515
vt 0.761371 0.113515
vt 0.707754 0.183562
vt 0.730073 0.276707
vt 0.800781 0.103704
vt 0.863396 0.169944
vt 0.738166 0.169944
vt 0.768152 0.222145
vt 0.833514 0.222140
vt 0.833514 0.222140
vt 0.768152 0.222145
vt 0.800781 0.282177
vt 0.759232 0.261844
vt 0.842718 0.261812
vt 0.745227 0.207677
vt 0.856335 0.207677
vt 0.800781 0.111586
vt 0.767618 0.221918
vt 0.774591 0.247618
vt 0.774591 0.247618
vt 0.767618 0.221918
vt 0.800781 0.282512
vt 0.843056 0.261984
vt 0.758894 0.262015
vt 0.744819 0.207526
vt 0.856743 0.207526
vt 0.827256 0.247603
vt 0.834047 0.221913
vt 0.774591 0.247618
vt 0.767618 0.221918
vt 0.834047 0.221913
vt 0.827256 0.247603
vt 0.775006 0.247370
vt 0.826840 0.247356
vt 0.826840 0.247356
vt 0.826840 0.247356
vt 0.833514 0.222140
vt 0.775006 0.247370
vt 0.768152 0.222145
vt 0.775006 0.247370
vt 0.775006 0.247370
vt 0.775006 0.247370
vt 0.767618 0.221918
vt 0.774591 0.247618
vt 0.827256 0.247603
vt 0.834047 0.221913
vt 0.774591 0.247618
vt 0.767618 0.221918
vt 0.768152 0.222145
vt 0.768152 0.222145
vn -1.0000 0.0000 0.0000
vn 0.0000 0.0000 -1.0000
vn 1.0000 0.0000 0.0000
vn 0.0000 0.0000 1.0000
vn 0.0000 -1.0000 0.0000
vn 0.0000 1.0000 0.0000
vn 0.0000 0.8372 -0.5469
vn 0.2990 0.7989 -0.5219
vn 0.2313 -0.4314 -0.8720
vn 0.2313 -0.4314 0.8720
vn 0.2990 0.7989 0.5219
vn 0.2753 -0.8451 -0.4582
vn 0.2333 0.2164 -0.9480
vn 0.2753 -0.8451 0.4582
vn 0.2333 0.2164 0.9480
vn -0.2399 -0.4304 -0.8702
vn 0.0000 -0.4434 -0.8963
vn 0.0000 -0.4434 0.8963
vn 0.0000 0.8372 0.5469
vn 0.0000 -0.8791 -0.4766
vn 0.0000 0.2225 -0.9749
vn 0.0000 -0.8791 0.4766
vn 0.0000 0.2225 0.9749
vn -0.2399 -0.4304 0.8702
vn -0.3097 0.7961 0.5200
vn -0.2853 -0.8426 -0.4568
vn -0.2420 0.2159 -0.9459
vn -0.2853 -0.8426 0.4568
vn -0.2420 0.2159 0.9459
vn -0.3097 0.7961 -0.5200
vn 0.0000 0.9997 -0.0231
vn 0.0000 -0.9997 0.0231
usemtl Material.002
s off
f 1/1/1 2/2/1 4/3/1 3/4/1
f 3/5/2 4/6/2 8/7/2 7/8/2
f 7/9/3 8/10/3 6/11/3 5/12/3
f 5/13/4 6/14/4 2/15/4 1/16/4
f 3/17/5 7/18/5 5/19/5 1/20/5
f 8/21/6 4/22/6 2/23/6 6/24/6
f 9/25/7 15/26/7 32/27/7 26/28/7
f 23/29/7 17/30/7 79/31/7 81/32/7
f 15/26/8 9/25/8 42/33/8 48/34/8
f 13/35/9 14/36/9 46/37/9 47/38/9
f 11/39/10 12/40/10 44/41/10 43/42/10
f 9/25/11 10/43/11 41/44/11 42/33/11
f 16/45/12 13/35/12 47/38/12 45/46/12
f 14/36/13 15/26/13 48/34/13 46/37/13
f 12/40/14 16/45/14 45/46/14 44/41/14
f 10/43/15 11/39/15 43/42/15 41/44/15
f 30/47/16 31/48/16 55/49/16 54/50/16
f 14/36/17 13/35/17 31/48/17 30/47/17
f 12/40/18 11/39/18 27/51/18 28/52/18
f 10/43/19 9/25/19 26/28/19 25/53/19
f 13/35/20 16/45/20 29/54/20 31/48/20
f 15/26/21 14/36/21 30/47/21 32/27/21
f 16/45/22 12/40/22 28/52/22 29/54/22
f 11/39/23 10/43/23 25/53/23 27/51/23
f 35/55/23 33/56/23 88/57/23 90/58/23
f 28/52/24 27/51/24 51/59/24 52/60/24
f 25/53/25 26/28/25 50/61/25 49/62/25
f 31/48/26 29/54/26 53/63/26 55/49/26
f 32/27/27 30/47/27 54/50/27 56/64/27
f 29/54/28 28/52/28 52/60/28 53/63/28
f 27/51/29 25/53/29 49/62/29 51/59/29
f 26/28/30 32/27/30 56/64/30 50/61/30
f 18/65/3 17/30/3 42/33/3 41/44/3
f 19/66/3 18/65/3 41/44/3 43/42/3
f 20/67/3 19/66/3 43/42/3 44/41/3
f 24/68/3 20/67/3 44/41/3 45/46/3
f 22/69/3 21/70/3 47/38/3 46/37/3
f 23/29/3 22/69/3 46/37/3 48/34/3
f 17/30/3 23/29/3 48/34/3 42/33/3
f 21/70/3 24/68/3 45/46/3 47/38/3
f 34/71/1 33/56/1 49/62/1 50/61/1
f 33/56/1 35/55/1 51/59/1 49/62/1
f 35/55/1 36/72/1 52/60/1 51/59/1
f 36/72/1 37/73/1 53/63/1 52/60/1
f 39/74/1 38/75/1 54/50/1 55/49/1
f 38/75/1 40/76/1 56/64/1 54/50/1
f 40/76/1 34/71/1 50/61/1 56/64/1
f 37/73/1 39/74/1 55/49/1 53/63/1
f 60/77/1 59/78/1 62/79/1 63/80/1
f 34/71/7 40/76/7 91/81/7 89/82/7
f 38/75/17 39/74/17 87/83/17 92/84/17
f 36/72/18 35/55/18 90/58/18 83/85/18
f 33/56/19 34/71/19 89/82/19 88/57/19
f 39/74/20 37/73/20 85/86/20 87/83/20
f 40/76/21 38/75/21 92/84/21 91/81/21
f 37/73/22 36/72/22 83/85/22 85/86/22
f 69/87/3 71/88/3 68/89/3
f 21/70/17 22/69/17 82/90/17 77/91/17
f 19/66/18 20/67/18 73/92/18 80/93/18
f 17/30/19 18/65/19 78/94/19 79/31/19
f 24/68/20 21/70/20 77/91/20 75/95/20
f 22/69/21 23/29/21 81/32/21 82/90/21
f 20/67/22 24/68/22 75/95/22 73/92/22
f 18/65/23 19/66/23 80/93/23 78/94/23
f 68/89/3 71/88/3 70/96/3 67/97/3
f 74/98/5 76/99/5 108/100/5 107/101/5
f 66/102/3 101/103/3 102/104/3
f 68/89/3 67/97/3 80/93/3 73/92/3
f 69/87/3 68/89/3 73/92/3 75/95/3
f 70/96/3 71/88/3 77/91/3 82/90/3
f 71/88/3 69/87/3 75/95/3 77/91/3
f 67/97/3 70/96/3 82/90/3 80/93/3
f 101/103/3 66/102/3 79/31/3 78/94/3
f 103/105/3 101/103/3 78/94/3 80/93/3
f 102/104/3 104/106/3 82/90/3 81/32/3
f 66/102/3 102/104/3 81/32/3 79/31/3
f 104/106/3 103/105/3 80/93/3 82/90/3
f 61/107/1 60/77/1 63/80/1
f 84/108/23 57/109/23 97/110/23 99/111/23
f 58/112/1 94/113/1 93/114/1
f 59/78/1 60/77/1 83/85/1 90/58/1
f 60/77/1 61/107/1 85/86/1 83/85/1
f 63/80/1 62/79/1 92/84/1 87/83/1
f 61/107/1 63/80/1 87/83/1 85/86/1
f 62/79/1 59/78/1 90/58/1 92/84/1
f 58/112/1 93/114/1 88/57/1 89/82/1
f 93/114/1 95/115/1 90/58/1 88/57/1
f 96/116/1 94/113/1 91/81/1 92/84/1
f 94/113/1 58/112/1 89/82/1 91/81/1
f 95/115/1 96/116/1 92/84/1 90/58/1
f 64/117/1 57/109/1 93/114/1 94/113/1
f 57/109/1 84/108/1 95/115/1 93/114/1
f 86/118/1 64/117/1 94/113/1 96/116/1
f 84/108/1 86/118/1 96/116/1 95/115/1
f 99/111/3 97/110/3 118/119/3 117/120/3
f 64/117/21 86/118/21 100/121/21 98/122/21
f 57/109/6 64/117/6 98/122/6 97/110/6
f 86/118/5 84/108/5 99/111/5 100/121/5
f 65/123/3 72/124/3 102/104/3 101/103/3
f 74/98/3 65/123/3 101/103/3 103/105/3
f 72/124/3 76/99/3 104/106/3 102/104/3
f 76/99/3 74/98/3 103/105/3 104/106/3
f 108/100/21 106/125/21 110/126/21 112/127/21
f 65/123/23 74/98/23 107/101/23 105/128/23
f 76/99/21 72/124/21 106/125/21 108/100/21
f 72/124/6 65/123/6 105/128/6 106/125/6
f 111/129/3 112/127/3 110/126/3 109/130/3
f 106/125/6 105/128/6 109/130/6 110/126/6
f 107/101/5 108/100/5 112/127/5 111/129/5
f 109/130/31 105/128/31 122/131/31 124/132/31
f 115/133/1 113/134/1 114/135/1 116/136/1
f 98/122/21 100/121/21 116/136/21 114/135/21
f 97/110/6 98/122/6 114/135/6 113/134/6
f 100/121/5 99/111/5 115/133/5 116/136/5
f 117/120/23 118/119/23 120/137/23 119/138/23
f 115/133/32 99/111/32 117/120/32 119/138/32
f 113/134/1 115/133/1 119/138/1 120/137/1
f 97/110/31 113/134/31 120/137/31 118/119/31
f 122/131/23 121/139/23 123/140/23 124/132/23
f 105/128/1 107/101/1 121/139/1 122/131/1
f 107/101/32 111/129/32 123/140/32 121/139/32
f 111/129/3 109/130/3 124/132/3 123/140/3
