# Blender v2.93.1 OBJ File: ''
# www.blender.org
mtllib ApartmentFloorEntrance.mtl
o Cube_Cube.001
v 3.256707 -0.250000 13.768088
v 3.256707 -0.109711 13.768088
v 3.256707 -0.250000 -22.500000
v 3.256707 -0.109711 -22.500000
v 17.500000 -0.250000 13.768088
v 17.500000 -0.109711 13.768088
v 17.500000 -0.250000 -22.500000
v 17.500000 -0.109711 -22.500000
v -2.383363 -0.250000 -22.500000
v -2.383363 -0.250000 13.768088
v -2.383363 -0.109711 13.768088
v -2.383363 -0.109711 -22.500000
v -17.516087 -0.250000 -22.500000
v -17.516087 -0.250000 13.768088
v -17.516087 -0.109711 13.768088
v -17.516087 -0.109711 -22.500000
v 3.256707 -0.109711 -24.332363
v 3.256707 -0.250000 -24.332363
v -2.383363 -0.109711 -24.332363
v -2.383363 -0.250000 -24.332363
vt 0.236337 0.590747
vt 0.354690 0.601005
vt 0.331254 0.637368
vt 0.254327 0.625067
vt 0.233524 0.593570
vt 0.050059 0.451449
vt 0.055668 0.449593
vt 0.029560 0.142184
vt 0.034504 0.144493
vt 0.234892 0.031450
vt 0.235881 0.034555
vt 0.994034 0.962107
vt 0.799557 0.962107
vt 0.799557 0.466903
vt 0.994034 0.466903
vt 0.722547 0.466903
vt 0.722547 0.962107
vt 0.515926 0.962107
vt 0.515926 0.466903
vt 0.344839 0.030335
vt 0.343855 0.033821
vt 0.545086 0.113500
vt 0.551026 0.111018
vt 0.551026 0.413609
vt 0.546471 0.411983
vt 0.358193 0.603933
vt 0.252876 0.626947
vt 0.332757 0.640393
vt 0.799557 0.987126
vt 0.722547 0.987126
vn 0.0000 -1.0000 0.0000
vn 0.0000 0.0000 -1.0000
vn 1.0000 0.0000 0.0000
vn 0.0000 0.0000 1.0000
vn 0.0000 1.0000 0.0000
vn -1.0000 0.0000 0.0000
usemtl Material.001
s off
f 3/1/1 9/2/1 20/3/1 18/4/1
f 3/1/2 4/5/2 8/6/2 7/7/2
f 7/7/3 8/6/3 6/8/3 5/9/3
f 5/9/4 6/8/4 2/10/4 1/11/4
f 3/1/1 7/7/1 5/9/1 1/11/1
f 8/12/5 4/13/5 2/14/5 6/15/5
f 11/16/5 12/17/5 16/18/5 15/19/5
f 1/11/4 2/10/4 11/20/4 10/21/4
f 2/14/5 4/13/5 12/17/5 11/16/5
f 3/1/1 1/11/1 10/21/1 9/2/1
f 14/22/6 15/23/6 16/24/6 13/25/6
f 9/2/1 10/21/1 14/22/1 13/25/1
f 12/26/2 9/2/2 13/25/2 16/24/2
f 10/21/4 11/20/4 15/23/4 14/22/4
f 17/27/2 18/4/2 20/3/2 19/28/2
f 4/5/3 3/1/3 18/4/3 17/27/3
f 12/17/5 4/13/5 17/29/5 19/30/5
f 9/2/6 12/26/6 19/28/6 20/3/6
