# Blender v2.93.1 OBJ File: 'Skylt.blend'
# www.blender.org
mtllib Cashier Desk.mtl
o Cube_Cube.009
v -3.540482 -0.500000 0.461421
v -3.540482 0.500000 0.461421
v -3.540482 -0.500000 -0.500000
v -3.540482 0.500000 -0.500000
v 0.500000 -0.500000 0.461421
v 0.500000 -0.500000 -0.500000
v 0.500000 0.500000 -0.500000
v 1.264408 0.500000 -0.500000
v 1.264408 -0.500000 -0.500000
v 1.264408 -0.500000 0.461421
v 1.264408 0.500000 0.461421
v -3.540482 1.022161 -0.017552
v -3.540482 1.022161 -0.500000
v 1.264408 1.022161 -0.500000
v 1.264408 1.022161 -0.017552
v 1.204408 0.500000 -0.500000
v 1.204408 0.500000 0.461421
v 1.204408 1.022161 -0.500000
v 1.204408 1.022161 -0.017552
v -3.480482 0.500000 0.461421
v -3.481372 0.500000 -0.500000
v -3.480482 1.022161 -0.017552
v -3.480482 1.022161 -0.500000
v 0.500000 0.500000 -1.454558
v 0.500000 -0.500000 -1.454558
v 1.264408 0.500000 -1.454558
v 1.264408 -0.500000 -1.454558
v -3.482262 -0.500000 -0.500000
v -3.482262 -0.500000 0.461421
v 0.499338 0.500000 0.461421
v 1.208670 -0.500000 0.461421
v 1.208670 -0.500000 -0.500000
v 0.448539 1.022161 -0.017552
v 0.448539 1.022161 -0.500000
v 1.204408 0.975628 -0.017552
v 0.448539 0.975628 -0.017552
v 1.204408 0.975628 -0.500000
v 0.448539 0.975628 -0.500000
v -3.480482 0.975628 -0.017552
v -3.480482 0.975628 -0.500000
vt 0.231401 0.652888
vt 0.116166 0.652888
vt 0.116166 0.542099
vt 0.231401 0.542099
vt 0.116166 0.000310
vt 0.231401 0.000413
vt 0.231401 0.459206
vt 0.116166 0.459206
vt 0.232021 0.459206
vt 0.232021 0.000310
vt 0.342810 0.000310
vt 0.342810 0.459206
vt 0.741093 0.424249
vt 0.659429 0.424303
vt 0.659844 0.309068
vt 0.741093 0.309014
vt 0.115545 0.659802
vt 0.000310 0.659802
vt 0.000310 0.549013
vt 0.115545 0.549013
vt 0.480675 0.542099
vt 0.480675 0.652888
vt 0.474252 0.652888
vt 0.474252 0.542099
vt 0.749298 0.630584
vt 0.742811 0.588067
vt 0.747651 0.582682
vt 0.757058 0.631651
vt 0.570075 0.308394
vt 0.454840 0.308394
vt 0.454840 0.198395
vt 0.570075 0.198395
vt 0.608853 0.463691
vt 0.628311 0.554680
vt 0.621115 0.555460
vt 0.604335 0.469370
vt 0.473632 0.542099
vt 0.473632 0.652888
vt 0.466718 0.652888
vt 0.466718 0.542099
vt 0.628311 0.955025
vt 0.621913 0.949661
vt 0.659403 0.119127
vt 0.718532 0.113629
vt 0.724393 0.119551
vt 0.660473 0.128422
vt 0.726173 0.070967
vt 0.732590 0.069856
vt 0.691706 0.003273
vt 0.697595 0.000310
vt 0.686456 0.572501
vt 0.705201 0.459826
vt 0.757058 0.526141
vt 0.685146 0.581380
vt 0.708759 0.705739
vt 0.716206 0.709719
vt 0.454840 0.427338
vt 0.565630 0.427338
vt 0.565630 0.434252
vt 0.454840 0.434149
vt 0.570696 0.111100
vt 0.577119 0.111100
vt 0.658782 0.111100
vt 0.658782 0.221098
vt 0.570696 0.221098
vt 0.454840 0.000310
vt 0.570075 0.000310
vt 0.570075 0.110309
vt 0.454840 0.110309
vt 0.424679 0.764298
vt 0.343507 0.764298
vt 0.343431 0.653508
vt 0.424679 0.653508
vt 0.017888 0.720569
vt 0.104991 0.720569
vt 0.099137 0.802220
vt 0.017888 0.802220
vt 0.732590 0.178610
vt 0.676807 0.246114
vt 0.454840 0.441581
vt 0.454840 0.434872
vt 0.565629 0.434872
vt 0.565629 0.441581
vt 0.466097 0.542099
vt 0.466097 0.657334
vt 0.459286 0.657334
vt 0.459389 0.542099
vt 0.342810 0.657334
vt 0.232021 0.657334
vt 0.232021 0.542099
vt 0.342810 0.542099
vt 0.570076 0.419830
vt 0.454840 0.419803
vt 0.454866 0.309014
vt 0.570102 0.309041
vt 0.454868 0.426717
vt 0.570102 0.426253
vt 0.658782 0.000310
vt 0.577119 0.000310
vt 0.000310 0.542099
vt 0.115545 0.542590
vt 0.231401 0.659597
vt 0.116166 0.659802
vt 0.343431 0.652888
vt 0.343431 0.542099
vt 0.458666 0.542099
vt 0.458666 0.652888
vt 0.658809 0.309014
vt 0.658809 0.419012
vt 0.570723 0.419012
vt 0.570723 0.309014
vt 0.115545 0.459001
vt 0.000310 0.459206
vt 0.000310 0.000310
vt 0.115545 0.000387
vt 0.343431 0.459001
vt 0.343431 0.000386
vt 0.454220 0.000310
vt 0.454220 0.459103
vt 0.081559 0.914525
vt 0.540173 0.914525
vt 0.540173 0.832873
vt 0.087413 0.832873
vt 0.560530 0.465089
vt 0.548405 0.561546
vt 0.573532 0.949493
vt 0.555462 0.459826
vt 0.567211 0.956586
vt 0.540794 0.561531
vt 0.684526 0.999690
vt 0.628931 0.999690
vt 0.628931 0.912587
vt 0.684526 0.912587
vt 0.628931 0.459826
vt 0.684526 0.459827
vn -1.0000 0.0000 0.0000
vn 0.0000 0.0000 -1.0000
vn 0.0000 -1.0000 0.0000
vn 0.0000 0.0000 1.0000
vn 1.0000 0.0000 0.0000
vn 0.0000 1.0000 0.0000
vn 0.0000 -0.6760 -0.7369
vn -1.0000 0.0011 0.0006
vn 0.0000 0.6760 0.7369
vn 1.0000 -0.0013 -0.0005
vn 1.0000 0.0043 0.0000
vn -1.0000 -0.0003 -0.0003
usemtl Material.001
s off
f 1/1/1 2/2/1 4/3/1 3/4/1
f 28/5/2 21/6/2 7/7/2 6/8/2
f 28/9/3 6/10/3 5/11/3 29/12/3
f 5/13/4 31/14/4 17/15/4 30/16/4
f 9/17/5 8/18/5 11/19/5 10/20/5
f 31/21/3 32/22/3 9/23/3 10/24/3
f 12/25/3 13/26/3 23/27/3 22/28/3
f 8/29/5 9/30/5 27/31/5 26/32/5
f 18/33/4 34/34/4 38/35/4 37/36/4
f 11/37/6 8/38/6 16/39/6 17/40/6
f 34/34/4 23/41/4 40/42/4 38/35/4
f 8/43/4 14/44/4 18/45/4 16/46/4
f 14/44/3 15/47/3 19/48/3 18/45/3
f 15/47/7 11/49/7 17/50/7 19/48/7
f 14/44/1 8/43/1 11/49/1 15/47/1
f 21/51/8 20/52/8 22/53/8 23/27/8
f 13/26/4 4/54/4 21/51/4 23/27/4
f 2/55/7 12/25/7 22/28/7 20/56/7
f 4/57/6 2/58/6 20/59/6 21/60/6
f 9/61/3 32/62/3 6/63/3 25/64/3 27/65/3
f 6/66/1 7/67/1 24/68/1 25/69/1
f 16/70/6 7/71/6 30/72/6 17/73/6
f 19/74/9 33/75/9 30/76/9 17/77/9
f 16/46/5 18/45/5 19/78/5 17/79/5
f 12/25/5 2/55/5 4/54/5 13/26/5
f 3/80/3 28/81/3 29/82/3 1/83/3
f 3/84/2 4/85/2 21/86/2 28/87/2
f 29/88/10 28/89/10 21/90/10 20/91/10
f 32/92/11 16/93/11 17/94/11 31/95/11
f 8/96/4 16/93/4 32/92/4 9/97/4
f 5/98/3 6/63/3 32/62/3 31/99/3
f 11/19/4 17/100/4 31/101/4 10/20/4
f 1/1/4 29/102/4 20/103/4 2/2/4
f 30/104/12 7/105/12 6/106/12 5/107/12
f 8/108/6 26/109/6 24/110/6 7/111/6
f 20/112/4 29/113/4 5/114/4 30/115/4
f 20/116/6 30/117/6 7/118/6 21/119/6
f 30/120/7 20/121/7 22/122/7 33/123/7
f 35/124/6 37/36/6 38/35/6 36/125/6
f 36/125/6 38/35/6 40/42/6 39/126/6
f 19/127/1 18/33/1 37/36/1 35/124/1
f 23/41/5 22/128/5 39/126/5 40/42/5
f 33/129/2 19/127/2 35/124/2 36/125/2
f 22/128/2 33/129/2 36/125/2 39/126/2
f 18/130/3 19/131/3 33/132/3 34/133/3
f 33/132/3 22/134/3 23/135/3 34/133/3
f 25/69/2 24/68/2 26/32/2 27/31/2
o Cube.001_Cube.010
v 0.541999 0.411531 -1.477306
v 0.541999 0.499412 -1.477306
v 0.541999 0.411531 -2.427306
v 0.541999 0.499412 -2.427306
v 1.220199 0.411531 -1.477306
v 1.220199 0.499412 -1.477306
v 1.220199 0.411531 -2.427306
v 1.220199 0.499412 -2.427306
v 0.516999 0.479412 -1.452306
v 0.516999 0.479412 -2.452306
v 1.245199 0.479412 -2.452306
v 1.245199 0.479412 -1.452306
v 0.516999 0.431531 -2.452306
v 0.516999 0.431531 -1.452306
v 1.245199 0.431531 -2.452306
v 1.245199 0.431531 -1.452306
v 0.516999 0.431531 -2.452306
v 0.516999 0.431531 -2.452306
v 0.516999 0.431531 -2.452306
v 0.516999 0.431531 -1.452306
v 0.516999 0.431531 -1.452306
v 0.516999 0.431531 -1.452306
v 0.516999 0.479412 -1.452306
v 0.516999 0.479412 -1.452306
v 0.516999 0.479412 -1.452306
v 0.516999 0.479412 -2.452306
v 0.516999 0.479412 -2.452306
v 0.516999 0.479412 -2.452306
v 1.245199 0.431531 -2.452306
v 1.245199 0.431531 -2.452306
v 1.245199 0.431531 -2.452306
v 1.245199 0.479412 -2.452306
v 1.245199 0.479412 -2.452306
v 1.245199 0.479412 -2.452306
v 1.245199 0.431531 -1.452306
v 1.245199 0.431531 -1.452306
v 1.245199 0.431531 -1.452306
v 1.245199 0.479412 -1.452306
v 1.245199 0.479412 -1.452306
v 1.245199 0.479412 -1.452306
v 0.541999 0.499412 -1.477306
v 0.541999 0.499412 -1.477306
v 0.541999 0.499412 -2.427306
v 0.541999 0.499412 -2.427306
v 1.220199 0.499412 -2.427306
v 1.220199 0.499412 -2.427306
v 1.220199 0.499412 -1.477306
v 1.220199 0.499412 -1.477306
v 0.541999 0.411531 -2.427306
v 0.541999 0.411531 -2.427306
v 0.541999 0.411531 -1.477306
v 0.541999 0.411531 -1.477306
v 1.220199 0.411531 -2.427306
v 1.220199 0.411531 -2.427306
v 1.220199 0.411531 -1.477306
v 1.220199 0.411531 -1.477306
vt 0.617902 0.587483
vt 0.617902 0.617057
vt 0.000231 0.617057
vt 0.000231 0.587482
vt 0.838968 0.000231
vt 0.868542 0.000231
vt 0.868542 0.450019
vt 0.838967 0.450019
vt 0.000231 0.647094
vt 0.000231 0.617520
vt 0.617902 0.617520
vt 0.617902 0.647095
vt 0.898580 0.450019
vt 0.869005 0.450019
vt 0.869005 0.000231
vt 0.898580 0.000231
vt 0.838505 0.587020
vt 0.419599 0.587020
vt 0.419599 0.000231
vt 0.838505 0.000231
vt 0.419137 0.587020
vt 0.000231 0.587020
vt 0.000231 0.000231
vt 0.419137 0.000231
vt 0.959756 0.602457
vt 0.959756 0.015673
vt 0.979531 0.000231
vt 0.979531 0.617899
vt 0.838968 0.884830
vt 0.838967 0.465923
vt 0.858743 0.450481
vt 0.858743 0.900271
vt 0.919280 0.602457
vt 0.919280 0.015673
vt 0.939056 0.000231
vt 0.939056 0.617899
vt 0.979994 0.434580
vt 0.979994 0.015673
vt 0.999769 0.000231
vt 0.999769 0.450021
vt 0.899042 0.602457
vt 0.899043 0.015673
vt 0.918818 0.000231
vt 0.918818 0.617899
vt 0.859205 0.884830
vt 0.859205 0.465923
vt 0.878980 0.450481
vt 0.878980 0.900271
vt 0.939518 0.602457
vt 0.939518 0.015673
vt 0.959293 0.000231
vt 0.959293 0.617899
vt 0.979994 0.884832
vt 0.979994 0.465926
vt 0.999769 0.450484
vt 0.999769 0.900274
vn -1.0000 0.0000 0.0000
vn 0.0000 0.0000 -1.0000
vn 1.0000 0.0000 0.0000
vn 0.0000 0.0000 1.0000
vn 0.0000 -1.0000 0.0000
vn 0.0000 1.0000 0.0000
vn -0.6247 0.7808 0.0000
vn 0.0000 0.7808 -0.6247
vn 0.6247 0.7808 0.0000
vn 0.0000 0.7808 0.6247
vn -0.6247 -0.7808 0.0000
vn 0.0000 -0.7808 -0.6247
vn 0.6247 -0.7808 0.0000
vn 0.0000 -0.7808 0.6247
usemtl Material.002
s 1
f 60/136/13 63/137/13 66/138/13 57/139/13
f 58/140/14 67/141/14 72/142/14 69/143/14
f 70/144/15 73/145/15 78/146/15 75/147/15
f 76/148/16 79/149/16 64/150/16 61/151/16
f 89/152/17 93/153/17 95/154/17 91/155/17
f 85/156/18 83/157/18 81/158/18 87/159/18
f 82/160/19 84/161/19 68/162/19 65/163/19
f 44/164/20 86/165/20 74/166/20 50/167/20
f 48/168/21 88/169/21 80/170/21 51/171/21
f 46/172/22 42/173/22 49/174/22 52/175/22
f 90/176/23 92/177/23 62/178/23 59/179/23
f 94/180/24 43/181/24 53/182/24 71/183/24
f 96/184/25 47/185/25 55/186/25 77/187/25
f 41/188/26 45/189/26 56/190/26 54/191/26
o Cube.002_Cube.011
v -3.478486 0.396073 0.343026
v -3.478486 1.018062 -0.052890
v -3.478486 0.396073 -0.343026
v -3.478486 1.018062 -0.343026
v 1.207609 0.396073 0.343026
v 1.207609 1.018062 -0.052890
v 1.207609 0.396073 -0.343026
v 1.207609 1.018062 -0.343026
vt 0.375000 0.000000
vt 0.625000 0.000000
vt 0.625000 0.250000
vt 0.375000 0.250000
vt 0.625000 0.500000
vt 0.375000 0.500000
vt 0.625000 0.750000
vt 0.375000 0.750000
vt 0.625000 1.000000
vt 0.375000 1.000000
vt 0.125000 0.500000
vt 0.125000 0.750000
vt 0.875000 0.500000
vt 0.875000 0.750000
vn -1.0000 0.0000 0.0000
vn 0.0000 0.0000 -1.0000
vn 1.0000 0.0000 0.0000
vn 0.0000 0.5370 0.8436
vn 0.0000 -1.0000 0.0000
vn 0.0000 1.0000 0.0000
usemtl Material.003
s off
f 97/192/27 98/193/27 100/194/27 99/195/27
f 99/195/28 100/194/28 104/196/28 103/197/28
f 103/197/29 104/196/29 102/198/29 101/199/29
f 101/199/30 102/198/30 98/200/30 97/201/30
f 99/202/31 103/197/31 101/199/31 97/203/31
f 104/196/32 100/204/32 98/205/32 102/198/32
