# Blender v2.93.1 OBJ File: 'Skylt.blend'
# www.blender.org
mtllib Door.mtl
o Cube_Cube.001
v -0.078707 -0.007950 0.457200
v -0.078707 2.001191 0.457200
v -0.078707 -0.007950 -0.457200
v -0.078707 2.001191 -0.457200
v 0.096794 -0.007950 0.457200
v 0.096794 2.001191 0.457200
v 0.096794 -0.007950 -0.457200
v 0.096794 2.001191 -0.457200
v -0.078707 2.075274 0.457200
v -0.078707 2.075274 -0.457200
v 0.096794 2.075274 -0.457200
v 0.096794 2.075274 0.457200
v -0.078707 2.001191 -1.268950
v 0.096794 2.001191 -1.268950
v -0.078707 2.075274 -1.268950
v 0.096794 2.075274 -1.268950
v -0.078707 2.001191 -2.144373
v 0.096794 2.001191 -2.144373
v -0.078707 2.075274 -2.144373
v 0.096794 2.075274 -2.144373
v -0.078707 0.003450 -1.268950
v 0.096794 0.003450 -1.268950
v -0.078707 0.003450 -2.144373
v 0.096794 0.003450 -2.144373
v -0.078707 1.851652 -0.457200
v 0.096794 1.851652 -0.457200
v -0.078707 1.851652 -1.268950
v 0.096794 1.851652 -1.268950
vt 0.697615 0.908136
vt 0.449618 0.597755
vt 0.545652 0.471347
vt 0.838876 0.795267
vt 0.406455 0.825952
vt 0.153636 0.546667
vt 0.192263 0.533137
vt 0.423135 0.811685
vt 0.241146 0.956194
vt 0.289477 0.827927
vt 0.339824 0.862722
vt 0.292909 0.953174
vt 0.352037 0.862517
vt 0.298764 0.963082
vt 0.241917 0.967104
vt 0.070835 0.655656
vt 0.062266 0.648886
vt 0.145828 0.543115
vt 0.293564 0.822721
vt 0.303831 0.810543
vt 0.352152 0.856408
vt 0.340722 0.858085
vt 0.237324 0.776046
vt 0.246749 0.764486
vt 0.168189 0.443036
vt 0.156865 0.446016
vt 0.070379 0.290285
vt 0.083558 0.282966
vt 0.179392 0.468373
vt 0.168212 0.516389
vt 0.232769 0.781410
vt 0.184719 0.737805
vt 0.181911 0.721415
vt 0.190911 0.720709
vt 0.189642 0.735440
vt 0.456085 0.526936
vt 0.357929 0.341284
vt 0.680792 0.093504
vt 0.722818 0.233580
vt 0.423135 0.195670
vt 0.398167 0.190103
vt 0.361932 0.069329
vt 0.395406 0.061179
vt 0.205193 0.455564
vt 0.093895 0.886269
vt 0.047945 0.825414
vt 0.039934 0.813123
vt 0.181026 0.518351
vt 0.191096 0.473023
vn -1.0000 0.0000 0.0000
vn 0.0000 0.0000 -1.0000
vn 1.0000 0.0000 0.0000
vn 0.0000 0.0000 1.0000
vn 0.0000 -1.0000 0.0000
vn 0.0000 1.0000 0.0000
usemtl Material.001
s off
f 1/1/1 2/2/1 4/3/1 3/4/1
f 3/5/2 4/6/2 8/7/2 7/8/2
f 7/9/3 8/10/3 6/11/3 5/12/3
f 5/12/4 6/11/4 2/13/4 1/14/4
f 3/15/5 7/9/5 5/12/5 1/14/5
f 4/6/1 2/16/1 9/17/1 10/18/1
f 11/19/6 10/20/6 9/21/6 12/22/6
f 2/13/4 6/11/4 12/22/4 9/21/4
f 10/20/6 11/19/6 16/23/6 15/24/6
f 6/11/3 8/10/3 11/19/3 12/22/3
f 13/25/1 15/26/1 19/27/1 17/28/1
f 4/6/1 13/25/1 27/29/1 25/30/1
f 11/19/3 8/10/3 14/31/3 16/23/3
f 4/6/1 10/18/1 15/26/1 13/25/1
f 18/32/2 17/33/2 19/34/2 20/35/2
f 13/36/1 17/37/1 23/38/1 21/39/1
f 16/23/3 14/31/3 18/32/3 20/35/3
f 15/24/6 16/23/6 20/35/6 19/34/6
f 22/40/5 21/41/5 23/42/5 24/43/5
f 14/44/4 13/25/4 21/41/4 22/40/4
f 18/32/3 14/31/3 22/45/3 24/46/3
f 17/33/2 18/32/2 24/46/2 23/47/2
f 26/48/5 25/30/5 27/29/5 28/49/5
f 13/25/2 14/44/2 28/49/2 27/29/2
f 8/7/4 4/6/4 25/30/4 26/48/4
f 14/44/3 8/7/3 26/48/3 28/49/3
