# Blender v2.93.1 OBJ File: ''
# www.blender.org
mtllib LampForShop.mtl
o Cylinder
v 0.000000 0.125000 -0.500000
v -0.000000 -0.125000 -0.454706
v -0.097545 0.125000 -0.490393
v -0.088709 -0.125000 -0.445969
v -0.191342 0.125000 -0.461940
v -0.174008 -0.125000 -0.420093
v -0.277785 0.125000 -0.415735
v -0.252621 -0.125000 -0.378074
v -0.353553 0.125000 -0.353553
v -0.321526 -0.125000 -0.321526
v -0.415735 0.125000 -0.277785
v -0.378074 -0.125000 -0.252621
v -0.461940 0.125000 -0.191342
v -0.420093 -0.125000 -0.174008
v -0.490393 0.125000 -0.097545
v -0.445969 -0.125000 -0.088709
v -0.500000 0.125000 0.000000
v -0.454706 -0.125000 0.000000
v -0.490393 0.125000 0.097545
v -0.445969 -0.125000 0.088709
v -0.461940 0.125000 0.191342
v -0.420093 -0.125000 0.174008
v -0.415735 0.125000 0.277785
v -0.378074 -0.125000 0.252621
v -0.353553 0.125000 0.353553
v -0.321526 -0.125000 0.321526
v -0.277785 0.125000 0.415735
v -0.252621 -0.125000 0.378074
v -0.191342 0.125000 0.461940
v -0.174008 -0.125000 0.420093
v -0.097545 0.125000 0.490393
v -0.088709 -0.125000 0.445969
v 0.000000 0.125000 0.500000
v 0.000000 -0.125000 0.454706
v 0.097545 0.125000 0.490393
v 0.088709 -0.125000 0.445969
v 0.191342 0.125000 0.461940
v 0.174008 -0.125000 0.420093
v 0.277785 0.125000 0.415735
v 0.252621 -0.125000 0.378074
v 0.353553 0.125000 0.353553
v 0.321526 -0.125000 0.321526
v 0.415735 0.125000 0.277785
v 0.378074 -0.125000 0.252621
v 0.461940 0.125000 0.191342
v 0.420093 -0.125000 0.174008
v 0.490393 0.125000 0.097545
v 0.445969 -0.125000 0.088709
v 0.500000 0.125000 -0.000000
v 0.454706 -0.125000 -0.000000
v 0.490393 0.125000 -0.097545
v 0.445969 -0.125000 -0.088709
v 0.461940 0.125000 -0.191342
v 0.420093 -0.125000 -0.174008
v 0.415735 0.125000 -0.277785
v 0.378074 -0.125000 -0.252621
v 0.353553 0.125000 -0.353553
v 0.321526 -0.125000 -0.321526
v 0.277785 0.125000 -0.415735
v 0.252621 -0.125000 -0.378074
v 0.191342 0.125000 -0.461940
v 0.174008 -0.125000 -0.420093
v 0.097545 0.125000 -0.490393
v 0.088709 -0.125000 -0.445969
v -0.097545 -0.125000 -0.490393
v -0.000000 -0.125000 -0.500000
v -0.191342 -0.125000 -0.461940
v -0.277785 -0.125000 -0.415735
v -0.353553 -0.125000 -0.353553
v -0.415735 -0.125000 -0.277785
v -0.461940 -0.125000 -0.191342
v -0.490393 -0.125000 -0.097545
v -0.500000 -0.125000 0.000000
v -0.490393 -0.125000 0.097545
v -0.461940 -0.125000 0.191342
v -0.415735 -0.125000 0.277785
v -0.353553 -0.125000 0.353553
v -0.277785 -0.125000 0.415735
v -0.191342 -0.125000 0.461940
v -0.097545 -0.125000 0.490393
v 0.000000 -0.125000 0.500000
v 0.097545 -0.125000 0.490393
v 0.191342 -0.125000 0.461940
v 0.277785 -0.125000 0.415735
v 0.353553 -0.125000 0.353553
v 0.415735 -0.125000 0.277785
v 0.461940 -0.125000 0.191342
v 0.490393 -0.125000 0.097545
v 0.500000 -0.125000 -0.000000
v 0.490393 -0.125000 -0.097545
v 0.461940 -0.125000 -0.191342
v 0.415735 -0.125000 -0.277785
v 0.353553 -0.125000 -0.353553
v 0.277785 -0.125000 -0.415735
v 0.191342 -0.125000 -0.461940
v 0.097545 -0.125000 -0.490393
v -0.088709 -0.095511 -0.445969
v -0.000000 -0.095511 -0.454706
v -0.174008 -0.095511 -0.420093
v -0.252621 -0.095511 -0.378074
v -0.321526 -0.095511 -0.321526
v -0.378074 -0.095511 -0.252621
v -0.420093 -0.095511 -0.174008
v -0.445969 -0.095511 -0.088709
v -0.454706 -0.095511 0.000000
v -0.445969 -0.095511 0.088709
v -0.420093 -0.095511 0.174008
v -0.378074 -0.095511 0.252621
v -0.321526 -0.095511 0.321526
v -0.252621 -0.095511 0.378074
v -0.174008 -0.095511 0.420093
v -0.088709 -0.095511 0.445969
v 0.000000 -0.095511 0.454706
v 0.088709 -0.095511 0.445969
v 0.174008 -0.095511 0.420093
v 0.252621 -0.095511 0.378074
v 0.321526 -0.095511 0.321526
v 0.378074 -0.095511 0.252621
v 0.420093 -0.095511 0.174008
v 0.445969 -0.095511 0.088709
v 0.454706 -0.095511 -0.000000
v 0.445969 -0.095511 -0.088709
v 0.420093 -0.095511 -0.174008
v 0.378074 -0.095511 -0.252621
v 0.321526 -0.095511 -0.321526
v 0.252621 -0.095511 -0.378074
v 0.174008 -0.095511 -0.420093
v 0.088709 -0.095511 -0.445969
vt 0.328737 0.329458
vt 0.075658 0.547630
vt 0.038974 0.493135
vt 0.329851 0.328373
vt 0.013583 0.432495
vt 0.331149 0.327538
vt 0.000478 0.368023
vt 0.332578 0.326983
vt 0.000187 0.302185
vt 0.334080 0.326730
vt 0.012747 0.237493
vt 0.335589 0.326784
vt 0.037711 0.176434
vt 0.337043 0.327143
vt 0.074146 0.121377
vt 0.338381 0.327795
vt 0.120666 0.074465
vt 0.339549 0.328715
vt 0.175680 0.037922
vt 0.340491 0.329870
vt 0.236713 0.012850
vt 0.341210 0.331180
vt 0.301403 0.000187
vt 0.341679 0.332605
vt 0.367252 0.000384
vt 0.341877 0.334096
vt 0.431739 0.013401
vt 0.341798 0.335600
vt 0.492398 0.038704
vt 0.341442 0.337064
vt 0.546949 0.075317
vt 0.340828 0.338440
vt 0.593319 0.121836
vt 0.339974 0.339673
vt 0.629744 0.176486
vt 0.338913 0.340721
vt 0.654832 0.237177
vt 0.337683 0.341542
vt 0.667621 0.301586
vt 0.336332 0.342110
vt 0.667621 0.367245
vt 0.334911 0.342406
vt 0.654831 0.431638
vt 0.333474 0.342420
vt 0.629744 0.492294
vt 0.332078 0.342155
vt 0.593321 0.546887
vt 0.330780 0.341628
vt 0.546963 0.593320
vt 0.329633 0.340863
vt 0.492419 0.629826
vt 0.328538 0.339694
vt 0.431794 0.654992
vt 0.327691 0.338344
vt 0.367433 0.667850
vt 0.327122 0.336864
vt 0.301821 0.667918
vt 0.326851 0.335310
vt 0.237472 0.655209
vt 0.326887 0.333732
vt 0.176845 0.630227
vt 0.327228 0.332192
vt 0.018698 0.757704
vt 0.036925 0.730040
vt 0.067354 0.754204
vt 0.053224 0.775390
vt 0.122210 0.593910
vt 0.327851 0.330747
vt 0.684950 0.078597
vt 0.701254 0.054197
vt 0.722004 0.033446
vt 0.746405 0.017142
vt 0.773518 0.005912
vt 0.802300 0.000187
vt 0.831646 0.000187
vt 0.860428 0.005912
vt 0.887540 0.017142
vt 0.911941 0.033446
vt 0.932692 0.054197
vt 0.948995 0.078597
vt 0.960226 0.105710
vt 0.965951 0.134492
vt 0.965951 0.163838
vt 0.960226 0.192621
vt 0.948995 0.219733
vt 0.932691 0.244133
vt 0.911941 0.264884
vt 0.887540 0.281188
vt 0.860428 0.292418
vt 0.831646 0.298143
vt 0.802300 0.298143
vt 0.773517 0.292418
vt 0.746405 0.281188
vt 0.722005 0.264884
vt 0.701254 0.244133
vt 0.684950 0.219733
vt 0.673719 0.192620
vt 0.667994 0.163838
vt 0.667994 0.134492
vt 0.673720 0.105710
vt 0.830317 0.362794
vt 0.803629 0.362794
vt 0.802300 0.349298
vt 0.831646 0.349298
vt 0.777454 0.368001
vt 0.773517 0.355023
vt 0.752798 0.378213
vt 0.746405 0.366254
vt 0.730608 0.393040
vt 0.722005 0.382558
vt 0.711737 0.411911
vt 0.701254 0.403308
vt 0.696910 0.434101
vt 0.684950 0.427709
vt 0.686697 0.458758
vt 0.673720 0.454821
vt 0.681490 0.484933
vt 0.667994 0.483603
vt 0.681490 0.511620
vt 0.667994 0.512950
vt 0.686697 0.537795
vt 0.673720 0.541732
vt 0.696910 0.562452
vt 0.684950 0.568844
vt 0.711737 0.584642
vt 0.701254 0.593245
vt 0.730608 0.603513
vt 0.722004 0.613995
vt 0.752797 0.618340
vt 0.746405 0.630299
vt 0.777454 0.628552
vt 0.773517 0.641530
vt 0.803629 0.633759
vt 0.802299 0.647255
vt 0.830316 0.633759
vt 0.831646 0.647255
vt 0.856491 0.628552
vt 0.860428 0.641529
vt 0.881148 0.618339
vt 0.887540 0.630299
vt 0.903338 0.603513
vt 0.911941 0.613995
vt 0.922209 0.584642
vt 0.932692 0.593244
vt 0.937036 0.562452
vt 0.948995 0.568844
vt 0.947249 0.537795
vt 0.960226 0.541732
vt 0.952455 0.511620
vt 0.965951 0.512950
vt 0.952455 0.484933
vt 0.965951 0.483603
vt 0.947249 0.458758
vt 0.960226 0.454821
vt 0.937036 0.434102
vt 0.948995 0.427709
vt 0.922209 0.411911
vt 0.932692 0.403308
vt 0.903338 0.393040
vt 0.911941 0.382558
vt 0.881148 0.378213
vt 0.887540 0.366254
vt 0.856491 0.368001
vt 0.860428 0.355023
vt 0.938959 0.833031
vt 0.933753 0.859206
vt 0.923540 0.883863
vt 0.908713 0.906053
vt 0.889842 0.924924
vt 0.867652 0.939751
vt 0.842995 0.949964
vt 0.816821 0.955170
vt 0.790133 0.955170
vt 0.763958 0.949964
vt 0.739302 0.939751
vt 0.717112 0.924924
vt 0.698241 0.906052
vt 0.683414 0.883862
vt 0.673201 0.859206
vt 0.667994 0.833031
vt 0.667994 0.806344
vt 0.673201 0.780169
vt 0.683414 0.755512
vt 0.698241 0.733322
vt 0.717112 0.714451
vt 0.739302 0.699624
vt 0.763958 0.689412
vt 0.790133 0.684205
vt 0.816821 0.684205
vt 0.842996 0.689412
vt 0.867652 0.699624
vt 0.889842 0.714451
vt 0.908713 0.733323
vt 0.923540 0.755512
vt 0.933753 0.780169
vt 0.938959 0.806344
vt 0.336729 0.819341
vt 0.336729 0.852270
vt 0.298346 0.848945
vt 0.298335 0.823653
vt 0.039658 0.942861
vt 0.020770 0.916059
vt 0.054036 0.896870
vt 0.068361 0.917498
vt 0.006291 0.788368
vt 0.043556 0.798887
vt 0.330250 0.786974
vt 0.293365 0.798758
vt 0.063455 0.965294
vt 0.086474 0.934823
vt 0.000187 0.820825
vt 0.038722 0.823771
vt 0.317517 0.756444
vt 0.283585 0.775265
vt 0.091141 0.982488
vt 0.107671 0.948174
vt 0.299013 0.728953
vt 0.269364 0.754093
vt 0.121511 0.993908
vt 0.131205 0.957043
vt 0.275453 0.705580
vt 0.251247 0.736072
vt 0.153295 0.999567
vt 0.156354 0.961052
vt 0.247749 0.687239
vt 0.229932 0.721904
vt 0.185756 0.999813
vt 0.182084 0.961547
vt 0.216973 0.674646
vt 0.206241 0.712145
vt 0.217776 0.994097
vt 0.206973 0.957413
vt 0.184318 0.668291
vt 0.181091 0.707176
vt 0.248140 0.982259
vt 0.230364 0.948444
vt 0.151048 0.668424
vt 0.155453 0.707189
vt 0.275609 0.964611
vt 0.251446 0.934973
vt 0.118451 0.675041
vt 0.130319 0.712186
vt 0.299057 0.941805
vt 0.269430 0.917537
vt 0.087792 0.687886
vt 0.106663 0.721971
vt 0.317518 0.914739
vt 0.283591 0.896826
vt 0.000623 0.853795
vt 0.038903 0.849059
vt 0.060259 0.706460
vt 0.085400 0.736162
vt 0.330244 0.884492
vt 0.293362 0.873658
vt 0.007579 0.885967
vt 0.044080 0.873752
vn -0.0980 0.0000 -0.9952
vn -0.2903 0.0000 -0.9569
vn -0.4714 0.0000 -0.8819
vn -0.6344 0.0000 -0.7730
vn -0.7730 0.0000 -0.6344
vn -0.8819 0.0000 -0.4714
vn -0.9569 0.0000 -0.2903
vn -0.9952 0.0000 -0.0980
vn -0.9952 0.0000 0.0980
vn -0.9569 0.0000 0.2903
vn -0.8819 0.0000 0.4714
vn -0.7730 0.0000 0.6344
vn -0.6344 0.0000 0.7730
vn -0.4714 0.0000 0.8819
vn -0.2903 0.0000 0.9569
vn -0.0980 0.0000 0.9952
vn 0.0980 -0.0000 0.9952
vn 0.2903 -0.0000 0.9569
vn 0.4714 -0.0000 0.8819
vn 0.6344 0.0000 0.7730
vn 0.7730 0.0000 0.6344
vn 0.8819 0.0000 0.4714
vn 0.9569 0.0000 0.2903
vn 0.9952 0.0000 0.0980
vn 0.9952 0.0000 -0.0980
vn 0.9569 0.0000 -0.2903
vn 0.8819 0.0000 -0.4714
vn 0.7730 0.0000 -0.6344
vn 0.6344 0.0000 -0.7730
vn 0.4714 -0.0000 -0.8819
vn 0.2903 -0.0000 -0.9569
vn 0.0980 -0.0000 -0.9952
vn 0.0000 1.0000 -0.0000
vn -0.0000 -1.0000 0.0000
usemtl Material.002
s off
f 1/1/1 66/2/1 65/3/1 3/4/1
f 3/4/2 65/3/2 67/5/2 5/6/2
f 5/6/3 67/5/3 68/7/3 7/8/3
f 7/8/4 68/7/4 69/9/4 9/10/4
f 9/10/5 69/9/5 70/11/5 11/12/5
f 11/12/6 70/11/6 71/13/6 13/14/6
f 13/14/7 71/13/7 72/15/7 15/16/7
f 15/16/8 72/15/8 73/17/8 17/18/8
f 17/18/9 73/17/9 74/19/9 19/20/9
f 19/20/10 74/19/10 75/21/10 21/22/10
f 21/22/11 75/21/11 76/23/11 23/24/11
f 23/24/12 76/23/12 77/25/12 25/26/12
f 25/26/13 77/25/13 78/27/13 27/28/13
f 27/28/14 78/27/14 79/29/14 29/30/14
f 29/30/15 79/29/15 80/31/15 31/32/15
f 31/32/16 80/31/16 81/33/16 33/34/16
f 33/34/17 81/33/17 82/35/17 35/36/17
f 35/36/18 82/35/18 83/37/18 37/38/18
f 37/38/19 83/37/19 84/39/19 39/40/19
f 39/40/20 84/39/20 85/41/20 41/42/20
f 41/42/21 85/41/21 86/43/21 43/44/21
f 43/44/22 86/43/22 87/45/22 45/46/22
f 45/46/23 87/45/23 88/47/23 47/48/23
f 47/48/24 88/47/24 89/49/24 49/50/24
f 49/50/25 89/49/25 90/51/25 51/52/25
f 51/52/26 90/51/26 91/53/26 53/54/26
f 53/54/27 91/53/27 92/55/27 55/56/27
f 55/56/28 92/55/28 93/57/28 57/58/28
f 57/58/29 93/57/29 94/59/29 59/60/29
f 59/60/30 94/59/30 95/61/30 61/62/30
f 62/63/14 60/64/14 126/65/14 127/66/14
f 61/62/31 95/61/31 96/67/31 63/68/31
f 63/68/32 96/67/32 66/2/32 1/1/32
f 1/69/33 3/70/33 5/71/33 7/72/33 9/73/33 11/74/33 13/75/33 15/76/33 17/77/33 19/78/33 21/79/33 23/80/33 25/81/33 27/82/33 29/83/33 31/84/33 33/85/33 35/86/33 37/87/33 39/88/33 41/89/33 43/90/33 45/91/33 47/92/33 49/93/33 51/94/33 53/95/33 55/96/33 57/97/33 59/98/33 61/99/33 63/100/33
f 2/101/34 4/102/34 65/103/34 66/104/34
f 4/102/34 6/105/34 67/106/34 65/103/34
f 6/105/34 8/107/34 68/108/34 67/106/34
f 8/107/34 10/109/34 69/110/34 68/108/34
f 10/109/34 12/111/34 70/112/34 69/110/34
f 12/111/34 14/113/34 71/114/34 70/112/34
f 14/113/34 16/115/34 72/116/34 71/114/34
f 16/115/34 18/117/34 73/118/34 72/116/34
f 18/117/34 20/119/34 74/120/34 73/118/34
f 20/119/34 22/121/34 75/122/34 74/120/34
f 22/121/34 24/123/34 76/124/34 75/122/34
f 24/123/34 26/125/34 77/126/34 76/124/34
f 26/125/34 28/127/34 78/128/34 77/126/34
f 28/127/34 30/129/34 79/130/34 78/128/34
f 30/129/34 32/131/34 80/132/34 79/130/34
f 32/131/34 34/133/34 81/134/34 80/132/34
f 34/133/34 36/135/34 82/136/34 81/134/34
f 36/135/34 38/137/34 83/138/34 82/136/34
f 38/137/34 40/139/34 84/140/34 83/138/34
f 40/139/34 42/141/34 85/142/34 84/140/34
f 42/141/34 44/143/34 86/144/34 85/142/34
f 44/143/34 46/145/34 87/146/34 86/144/34
f 46/145/34 48/147/34 88/148/34 87/146/34
f 48/147/34 50/149/34 89/150/34 88/148/34
f 50/149/34 52/151/34 90/152/34 89/150/34
f 52/151/34 54/153/34 91/154/34 90/152/34
f 54/153/34 56/155/34 92/156/34 91/154/34
f 56/155/34 58/157/34 93/158/34 92/156/34
f 58/157/34 60/159/34 94/160/34 93/158/34
f 60/159/34 62/161/34 95/162/34 94/160/34
f 62/161/34 64/163/34 96/164/34 95/162/34
f 64/163/34 2/101/34 66/104/34 96/164/34
f 97/165/34 98/166/34 128/167/34 127/168/34 126/169/34 125/170/34 124/171/34 123/172/34 122/173/34 121/174/34 120/175/34 119/176/34 118/177/34 117/178/34 116/179/34 115/180/34 114/181/34 113/182/34 112/183/34 111/184/34 110/185/34 109/186/34 108/187/34 107/188/34 106/189/34 105/190/34 104/191/34 103/192/34 102/193/34 101/194/34 100/195/34 99/196/34
f 36/197/1 34/198/1 113/199/1 114/200/1
f 10/201/20 8/202/20 100/203/20 101/204/20
f 64/205/15 62/63/15 127/66/15 128/206/15
f 38/207/2 36/197/2 114/200/2 115/208/2
f 12/209/21 10/201/21 101/204/21 102/210/21
f 2/211/16 64/205/16 128/206/16 98/212/16
f 40/213/3 38/207/3 115/208/3 116/214/3
f 14/215/22 12/209/22 102/210/22 103/216/22
f 42/217/4 40/213/4 116/214/4 117/218/4
f 16/219/23 14/215/23 103/216/23 104/220/23
f 44/221/5 42/217/5 117/218/5 118/222/5
f 18/223/24 16/219/24 104/220/24 105/224/24
f 46/225/6 44/221/6 118/222/6 119/226/6
f 20/227/25 18/223/25 105/224/25 106/228/25
f 48/229/7 46/225/7 119/226/7 120/230/7
f 22/231/26 20/227/26 106/228/26 107/232/26
f 50/233/8 48/229/8 120/230/8 121/234/8
f 24/235/27 22/231/27 107/232/27 108/236/27
f 52/237/9 50/233/9 121/234/9 122/238/9
f 26/239/28 24/235/28 108/236/28 109/240/28
f 54/241/10 52/237/10 122/238/10 123/242/10
f 28/243/29 26/239/29 109/240/29 110/244/29
f 56/245/11 54/241/11 123/242/11 124/246/11
f 30/247/30 28/243/30 110/244/30 111/248/30
f 4/249/17 2/211/17 98/212/17 97/250/17
f 58/251/12 56/245/12 124/246/12 125/252/12
f 32/253/31 30/247/31 111/248/31 112/254/31
f 6/255/18 4/249/18 97/250/18 99/256/18
f 60/64/13 58/251/13 125/252/13 126/65/13
f 34/198/32 32/253/32 112/254/32 113/199/32
f 8/202/19 6/255/19 99/256/19 100/203/19
