# Blender v3.1.2 OBJ File: ''
# www.blender.org
mtllib SECRET.mtl
o Cube
v 1.000000 0.750000 -0.750000
v 1.000000 -0.750000 -0.750000
v 1.000000 0.750000 0.750000
v 1.000000 -0.750000 0.750000
v -1.000000 0.750000 -0.750000
v -1.000000 -0.750000 -0.750000
v -1.000000 0.750000 0.750000
v -1.000000 -0.750000 0.750000
v -0.750000 -0.750000 -1.000000
v -0.750000 -0.750000 1.000000
v 0.750000 0.750000 -1.000000
v 0.750000 -0.750000 -1.000000
v -0.750000 0.750000 1.000000
v 0.750000 0.750000 1.000000
v 0.750000 -0.750000 1.000000
v -0.750000 0.750000 -1.000000
v 1.000000 -1.000000 -1.000000
v -1.000000 -1.000000 -1.000000
v 0.500000 1.000000 -0.500000
v -1.000000 -1.000000 1.000000
v -0.500000 1.000000 0.500000
v 0.500000 1.000000 0.500000
v 1.000000 -1.000000 1.000000
v -0.500000 1.000000 -0.500000
v 1.000000 1.000000 1.000000
v -1.000000 1.000000 1.000000
v 1.000000 1.000000 -1.000000
v -1.000000 1.000000 -1.000000
v -0.248202 1.586625 -0.248202
v 0.248202 1.586625 -0.248202
v -0.248202 1.586625 0.248202
v 0.248202 1.586625 0.248202
v 0.500000 1.036246 0.500000
v 0.417316 1.118930 0.417316
v -0.417316 1.118930 0.417316
v -0.500000 1.036246 0.500000
v 0.500000 1.036246 -0.500000
v 0.417316 1.118930 -0.417316
v -0.417316 1.118930 -0.417316
v -0.500000 1.036246 -0.500000
v -0.750000 -0.750000 0.900000
v -0.700000 -0.700000 0.850000
v -0.700000 0.700000 0.850000
v -0.750000 0.750000 0.900000
v 0.750000 0.750000 0.900000
v 0.700000 0.700000 0.850000
v 0.700000 -0.700000 0.850000
v 0.750000 -0.750000 0.900000
v 0.900000 0.750000 -0.750000
v 0.850000 0.700000 -0.700000
v 0.850000 -0.700000 -0.700000
v 0.900000 -0.750000 -0.750000
v 0.850000 0.700000 0.700000
v 0.900000 0.750000 0.750000
v 0.900000 -0.750000 0.750000
v 0.850000 -0.700000 0.700000
v 0.700000 -0.700000 -0.850000
v 0.750000 -0.750000 -0.900000
v -0.750000 -0.750000 -0.900000
v -0.700000 -0.700000 -0.850000
v 0.700000 0.700000 -0.850000
v 0.750000 0.750000 -0.900000
v -0.750000 0.750000 -0.900000
v -0.700000 0.700000 -0.850000
v -0.854556 -0.750000 -0.750000
v -0.854556 -0.750000 0.750000
v -0.854556 0.750000 0.750000
v -0.854556 0.750000 -0.750000
v -0.850000 -0.695444 -0.695444
v -0.885355 -0.780799 -0.780799
v -0.850000 -0.695444 0.695444
v -0.885355 -0.780799 0.780799
v -0.850000 0.695444 0.695444
v -0.885355 0.780799 0.780799
v -0.850000 0.695444 -0.695444
v -0.885355 0.780799 -0.780799
v 0.215876 1.960271 -0.255926
v 0.668708 1.756943 -0.251723
v 0.211673 1.961172 0.240459
v 0.664504 1.757843 0.244662
v 0.792332 2.111032 -0.259043
v 1.122097 1.740070 -0.251374
v 0.784663 2.114476 0.237289
v 1.114427 1.743513 0.244958
v 1.379968 2.012443 -0.257005
v 1.528774 1.538969 -0.247217
v 1.370179 2.019626 0.239250
v 1.518986 1.546152 0.249039
v 1.875623 1.681809 -0.250170
v 1.817349 1.188943 -0.239980
v 1.865434 1.693272 0.245997
v 1.807160 1.200405 0.256187
v 2.192286 1.177175 -0.239737
v 1.937161 0.751440 -0.230935
v 2.183485 1.192705 0.256346
v 1.928360 0.766970 0.265147
v 2.274366 0.587129 -0.227538
v 1.867178 0.303263 -0.221670
v 2.268497 0.605802 0.268479
v 1.861309 0.321935 0.274348
v 2.107453 0.015255 -0.215716
v 1.619684 -0.076909 -0.213810
v 2.105548 0.035593 0.280268
v 1.617779 -0.056572 0.282173
v 1.720849 -0.438055 -0.206344
v 1.238127 -0.322337 -0.208736
v 1.723242 -0.417821 0.289641
v 1.240520 -0.302104 0.287249
v 1.182424 -0.693221 -0.201069
v 0.789491 -0.389936 -0.207339
v 1.188694 -0.674843 0.294955
v 0.795761 -0.371559 0.288685
v 0.586697 -0.705449 -0.200816
v 0.352534 -0.267839 -0.209863
v 0.595744 -0.690352 0.295276
v 0.361581 -0.252742 0.286229
v 0.038250 -0.472592 -0.205630
v 0.003963 0.022521 -0.215866
v 0.048485 -0.461626 0.290547
v 0.014199 0.033487 0.280311
v -0.366638 -0.035528 -0.214666
v -0.195028 0.430169 -0.224293
v -0.357010 -0.028817 0.281599
v -0.185401 0.436881 0.271971
vt 0.347407 0.978212
vt 0.352108 0.999566
vt 0.301218 0.999843
vt 0.317668 0.958610
vt 0.381770 0.976163
vt 0.381007 0.977314
vt 0.381063 0.977181
vt 0.381682 0.976266
vt 0.380508 0.976939
vt 0.380555 0.976123
vt 0.381072 0.976009
vt 0.380844 0.976794
vt 0.656660 0.525025
vt 0.779277 0.523351
vt 0.772466 0.532182
vt 0.665448 0.531806
vt 0.779792 0.805355
vt 0.657176 0.807029
vt 0.663987 0.798198
vt 0.771004 0.798573
vt 0.780401 0.964734
vt 0.778653 0.842139
vt 0.797547 0.824291
vt 0.798261 0.983635
vt 0.657533 0.647643
vt 0.780149 0.645970
vt 0.797903 0.664906
vt 0.638549 0.665474
vt 0.657800 0.966356
vt 0.638906 0.984204
vt 0.638906 0.506088
vt 0.798261 0.505521
vt 0.656052 0.843761
vt 0.638192 0.824860
vt 0.778919 0.682736
vt 0.656303 0.684410
vt 0.380902 0.976736
vt 0.380828 0.977730
vt 0.381087 0.976124
vt 0.382144 0.975935
vt 0.772108 0.691568
vt 0.665091 0.691192
vt 0.490577 0.434198
vt 0.490577 0.534614
vt 0.390160 0.534614
vt 0.390160 0.434198
vt 0.381084 0.976190
vt 0.380898 0.976673
vt 0.591306 0.534614
vt 0.490890 0.534614
vt 0.490890 0.434198
vt 0.591306 0.434198
vt 0.664344 0.638812
vt 0.771362 0.639188
vt 0.490577 0.635343
vt 0.390160 0.635343
vt 0.390160 0.534927
vt 0.490577 0.534927
vt 0.769792 0.851514
vt 0.665432 0.852626
vt 0.666661 0.956981
vt 0.771020 0.955869
vt 0.669705 0.952406
vt 0.766441 0.952822
vt 0.388251 0.977967
vt 0.379440 0.985110
vt 0.384028 0.964811
vt 0.380445 0.973822
vt 0.369974 0.976321
vt 0.378755 0.977104
vt 0.386241 0.961807
vt 0.389271 0.978674
vt 0.378905 0.986476
vt 0.367215 0.976677
vt 0.361497 0.977202
vt 0.377608 0.991147
vt 0.392948 0.981587
vt 0.391149 0.953203
vt 0.698195 0.046459
vt 0.704323 0.084176
vt 0.680488 0.082832
vt 0.664316 0.052400
vt 0.680251 0.000157
vt 0.656297 0.020231
vt 0.349507 0.945464
vt 0.380885 0.976618
vt 0.381126 0.977092
vt 0.381619 0.976338
vt 0.381071 0.976246
vt 0.670194 0.633335
vt 0.765913 0.633365
vt 0.766616 0.537659
vt 0.670897 0.537629
vt 0.765556 0.792750
vt 0.766259 0.697045
vt 0.670540 0.697015
vt 0.669837 0.792721
vt 0.490890 0.534927
vt 0.590652 0.534927
vt 0.590652 0.634690
vt 0.490890 0.634690
vt 0.670012 0.855673
vt 0.766747 0.856090
vt 0.759507 0.944157
vt 0.758088 0.863019
vt 0.678365 0.945476
vt 0.676946 0.864338
vt 0.639060 0.076158
vt 0.661390 0.098691
vt 0.645251 0.118745
vt 0.618992 0.100389
vt 0.639325 0.046447
vt 0.313203 0.908624
vt 0.272566 0.863009
vt 0.272949 0.924169
vt 0.224262 0.875677
vt 0.232432 0.806718
vt 0.241170 0.971227
vt 0.617039 0.069590
vt 0.595711 0.096198
vt 0.602280 0.127757
vt 0.589540 0.158520
vt 0.577651 0.127054
vt 0.632181 0.142097
vt 0.178796 0.923414
vt 0.622646 0.168290
vt 0.617183 0.196826
vt 0.581501 0.192261
vt 0.118994 0.857716
vt 0.177438 0.813552
vt 0.196686 0.740130
vt 0.168925 0.664735
vt 0.137034 0.738889
vt 0.107030 0.653551
vt 0.152758 0.582728
vt 0.066980 0.775519
vt 0.564064 0.161825
vt 0.578812 0.228317
vt 0.616292 0.227101
vt 0.620390 0.258411
vt 0.582021 0.265867
vt 0.555822 0.199876
vt 0.027603 0.679334
vt 0.629781 0.289962
vt 0.591547 0.303945
vt 0.004653 0.572946
vt 0.091212 0.560708
vt 0.150569 0.495916
vt 0.553643 0.240412
vt 0.163829 0.406418
vt 0.091315 0.462362
vt 0.109000 0.361347
vt 0.193476 0.316925
vt 0.000157 0.459446
vt 0.558129 0.282494
vt 0.607627 0.341359
vt 0.644586 0.320919
vt 0.664506 0.350600
vt 0.630008 0.376205
vt 0.569769 0.325046
vt 0.015849 0.342032
vt 0.145372 0.260730
vt 0.052964 0.224179
vt 0.112069 0.109447
vt 0.201643 0.163644
vt 0.240039 0.230624
vt 0.589031 0.366772
vt 0.304062 0.152365
vt 0.283700 0.069203
vt 0.392948 0.099235
vt 0.656259 0.404032
vt 0.616821 0.405557
vt 0.687673 0.379495
vt 0.704323 0.414170
vt 0.692440 0.453634
vt 0.655945 0.434616
vt 0.676721 0.416526
vt 0.192242 0.000157
vn -0.6293 0.7771 -0.0034
vn 0.0000 -1.0000 0.0000
vn 0.0000 0.0000 -1.0000
vn 1.0000 0.0000 0.0000
vn -1.0000 0.0000 0.0000
vn 0.0000 0.0000 1.0000
vn 0.0000 1.0000 0.0000
vn 0.7071 0.0000 0.7071
vn -0.9404 0.3400 0.0000
vn 0.0000 0.7071 0.7071
vn 0.7071 0.7071 0.0000
vn -0.7071 0.7071 0.0000
vn 0.0000 0.7071 -0.7071
vn 0.9404 0.3400 0.0000
vn 0.0000 0.3400 0.9404
vn 0.0000 0.3400 -0.9404
vn -0.7071 0.0000 0.7071
vn 0.0000 -0.7071 0.7071
vn 0.7071 0.0000 -0.7071
vn 0.7071 -0.7071 0.0000
vn -0.7071 0.0000 -0.7071
vn 0.0000 -0.7071 -0.7071
vn -0.9239 0.3827 0.0000
vn -0.9239 0.0000 -0.3827
vn -0.9239 0.0000 0.3827
vn -0.9239 -0.3827 0.0000
vn -0.0345 -0.9994 0.0040
vn 0.0000 0.0207 0.9998
vn 0.0000 -0.0207 -0.9998
vn 0.3779 -0.9258 0.0024
vn -0.2558 0.9667 -0.0073
vn -0.4409 -0.8976 0.0019
vn 0.1627 0.9866 -0.0077
vn -0.9637 -0.2669 -0.0112
vn -0.7698 -0.6382 -0.0035
vn 0.5526 0.8334 -0.0045
vn 0.8455 0.5339 0.0017
vn -0.8394 0.5427 -0.0279
vn -0.9883 0.1512 -0.0198
vn 0.9900 0.1408 0.0098
vn -0.5432 0.8389 -0.0340
vn 0.9607 -0.2771 0.0184
vn 0.7627 -0.6462 0.0261
vn 0.2666 0.9631 -0.0366
vn -0.1516 0.9877 -0.0371
vn 0.4308 -0.9019 0.0313
vn -0.3883 -0.9210 0.0317
vn 0.0233 -0.9992 0.0334
vn 0.6380 0.7694 -0.0326
vn -0.9381 0.3460 0.0135
vn 0.8974 0.4405 -0.0258
vn -0.7317 -0.6811 0.0268
usemtl Material
s off
f 29/1/1 31/2/1 79/3/1 77/4/1
f 14/5/2 13/6/2 44/7/2 45/8/2
f 18/9/2 17/10/2 23/11/2 20/12/2
f 3/13/3 4/14/3 55/15/3 54/16/3
f 9/17/4 16/18/4 63/19/4 59/20/4
f 8/21/5 6/22/5 18/23/5 20/24/5
f 1/25/4 2/26/4 17/27/4 27/28/4
f 7/29/5 8/21/5 20/24/5 26/30/5
f 4/14/4 3/13/4 25/31/4 23/32/4
f 6/22/5 5/33/5 28/34/5 18/23/5
f 3/13/4 1/25/4 27/28/4 25/31/4
f 5/33/5 7/29/5 26/30/5 28/34/5
f 2/26/4 4/14/4 23/32/4 17/27/4
f 9/17/3 12/35/3 17/27/3 18/23/3
f 12/35/3 11/36/3 27/28/3 17/27/3
f 10/37/6 13/6/6 26/38/6 20/12/6
f 14/5/6 15/39/6 23/11/6 25/40/6
f 16/18/3 9/17/3 18/23/3 28/34/3
f 13/6/6 14/5/6 25/40/6 26/38/6
f 15/39/6 10/37/6 20/12/6 23/11/6
f 11/36/3 16/18/3 28/34/3 27/28/3
f 11/36/5 12/35/5 58/41/5 62/42/5
f 16/18/2 11/36/2 62/42/2 63/19/2
f 60/43/3 64/44/3 61/45/3 57/46/3
f 10/37/7 15/39/7 48/47/7 41/48/7
f 47/49/6 46/50/6 43/51/6 42/52/6
f 15/39/5 14/5/5 45/8/5 48/47/5
f 1/25/2 3/13/2 54/16/2 49/53/2
f 4/14/7 2/26/7 52/54/7 55/15/7
f 51/55/4 50/56/4 53/57/4 56/58/4
f 5/33/6 6/22/6 65/59/6 68/60/6
f 8/21/3 7/29/3 67/61/3 66/62/3
f 7/29/2 5/33/2 68/60/2 67/61/2
f 66/62/8 67/61/8 74/63/8 72/64/8
f 22/65/7 21/66/7 26/38/7 25/40/7
f 19/67/7 22/65/7 25/40/7 27/68/7
f 21/66/7 24/69/7 28/70/7 26/38/7
f 24/69/7 19/67/7 27/68/7 28/70/7
f 22/65/4 19/67/4 37/71/4 33/72/4
f 24/69/5 21/66/5 36/73/5 40/74/5
f 19/67/3 24/69/3 40/74/3 37/71/3
f 39/75/9 35/76/9 31/2/9 29/1/9
f 34/77/10 35/76/10 36/73/10 33/72/10
f 38/78/11 34/77/11 33/72/11 37/71/11
f 35/76/12 39/75/12 40/74/12 36/73/12
f 39/75/13 38/78/13 37/71/13 40/74/13
f 21/66/6 22/65/6 33/72/6 36/73/6
f 34/79/14 38/80/14 30/81/14 32/82/14
f 35/83/15 34/79/15 32/82/15 31/84/15
f 38/78/16 39/75/16 29/1/16 30/85/16
f 42/86/8 43/87/8 44/7/8 41/48/8
f 46/88/17 47/89/17 48/47/17 45/8/17
f 45/8/18 44/7/18 43/87/18 46/88/18
f 41/48/10 48/47/10 47/89/10 42/86/10
f 13/6/4 10/37/4 41/48/4 44/7/4
f 50/90/8 51/91/8 52/54/8 49/53/8
f 54/16/19 55/15/19 56/92/19 53/93/19
f 49/53/20 54/16/20 53/93/20 50/90/20
f 55/15/11 52/54/11 51/91/11 56/92/11
f 2/26/6 1/25/6 49/53/6 52/54/6
f 58/41/13 59/20/13 60/94/13 57/95/13
f 62/42/21 58/41/21 57/95/21 61/96/21
f 64/97/19 60/94/19 59/20/19 63/19/19
f 63/19/22 62/42/22 61/96/22 64/97/22
f 12/35/7 9/17/7 59/20/7 58/41/7
f 71/98/5 73/99/5 75/100/5 69/101/5
f 67/61/11 68/60/11 76/102/11 74/63/11
f 65/59/20 66/62/20 72/64/20 70/103/20
f 6/22/7 8/21/7 66/62/7 65/59/7
f 71/104/23 69/105/23 70/103/23 72/64/23
f 73/106/24 71/104/24 72/64/24 74/63/24
f 69/105/25 75/107/25 76/102/25 70/103/25
f 75/107/26 73/106/26 74/63/26 76/102/26
f 68/60/19 65/59/19 70/103/19 76/102/19
f 80/108/27 78/109/27 82/110/27 84/111/27
f 31/84/28 32/82/28 80/108/28 79/112/28
f 30/85/29 29/1/29 77/4/29 78/113/29
f 32/82/30 30/81/30 78/109/30 80/108/30
f 82/114/29 81/115/29 85/116/29 86/117/29
f 77/4/31 79/3/31 83/118/31 81/115/31
f 78/113/29 77/4/29 81/115/29 82/114/29
f 79/112/28 80/108/28 84/111/28 83/119/28
f 87/120/28 88/121/28 92/122/28 91/123/28
f 83/119/28 84/111/28 88/121/28 87/120/28
f 84/111/32 82/110/32 86/124/32 88/121/32
f 81/115/33 83/118/33 87/125/33 85/116/33
f 92/122/34 90/126/34 94/127/34 96/128/34
f 88/121/35 86/124/35 90/126/35 92/122/35
f 85/116/36 87/125/36 91/129/36 89/130/36
f 86/117/29 85/116/29 89/130/29 90/131/29
f 94/132/29 93/133/29 97/134/29 98/135/29
f 89/130/37 91/129/37 95/136/37 93/133/37
f 90/131/29 89/130/29 93/133/29 94/132/29
f 91/123/28 92/122/28 96/128/28 95/137/28
f 100/138/38 98/139/38 102/140/38 104/141/38
f 95/137/28 96/128/28 100/138/28 99/142/28
f 96/128/39 94/127/39 98/139/39 100/138/39
f 93/133/40 95/136/40 99/143/40 97/134/40
f 104/141/41 102/140/41 106/144/41 108/145/41
f 97/134/42 99/143/42 103/146/42 101/147/42
f 98/135/29 97/134/29 101/147/29 102/148/29
f 99/142/28 100/138/28 104/141/28 103/149/28
f 106/150/29 105/151/29 109/152/29 110/153/29
f 101/147/43 103/146/43 107/154/43 105/151/43
f 102/148/29 101/147/29 105/151/29 106/150/29
f 103/149/28 104/141/28 108/145/28 107/155/28
f 112/156/44 110/157/44 114/158/44 116/159/44
f 107/155/28 108/145/28 112/156/28 111/160/28
f 108/145/45 106/144/45 110/157/45 112/156/45
f 105/151/46 107/154/46 111/161/46 109/152/46
f 113/162/47 115/163/47 119/164/47 117/165/47
f 109/152/48 111/161/48 115/163/48 113/162/48
f 110/153/29 109/152/29 113/162/29 114/166/29
f 111/160/28 112/156/28 116/159/28 115/167/28
f 118/168/29 117/165/29 121/169/29 122/170/29
f 114/166/29 113/162/29 117/165/29 118/168/29
f 115/167/28 116/159/28 120/171/28 119/172/28
f 116/159/49 114/158/49 118/173/49 120/171/49
f 122/174/50 121/175/50 123/176/50 124/177/50
f 119/172/28 120/171/28 124/177/28 123/176/28
f 120/171/51 118/173/51 122/174/51 124/177/51
f 117/165/52 119/164/52 123/178/52 121/169/52
